<?xml version="1.0" standalone="no"?><!DOCTYPE svg PUBLIC "-//W3C//DTD SVG 1.1//EN" "http://www.w3.org/Graphics/SVG/1.1/DTD/svg11.dtd"><svg t="1587563752636" class="icon" viewBox="0 0 1024 1024" version="1.1" xmlns="http://www.w3.org/2000/svg" p-id="54198" xmlns:xlink="http://www.w3.org/1999/xlink" width="128" height="128"><defs><style type="text/css"></style></defs><path d="M511.656 567c114.877 0 222.959 17.713 304.091 49.148 41.39 16.037 75.187 35.42 99.533 57.722 28.146 25.783 44.032 55.864 44.032 88.63s-15.886 62.847-44.032 88.63c-24.346 22.302-58.142 41.685-99.533 57.722C734.615 940.287 626.533 958 511.657 958c-114.878 0-222.96-17.713-304.092-49.148-41.39-16.037-75.187-35.42-99.532-57.722C79.887 825.347 64 795.266 64 762.5c0-30.25 13.596-58.329 37.914-82.764 21.087-21.188 50.39-39.834 86.5-55.69 18.205-7.992 39.443 0.286 47.436 18.49 7.993 18.205-0.285 39.443-18.49 47.436l-2.046 0.906c-27.466 12.262-48.646 25.862-62.366 39.648C141.155 742.376 136 753.021 136 762.5c0 10.448 6.301 22.379 20.667 35.539 17.017 15.588 43.254 30.636 76.91 43.676C305.85 869.718 405.205 886 511.658 886c106.451 0 205.805-16.282 278.078-44.285 33.656-13.04 59.893-28.088 76.91-43.676 14.366-13.16 20.667-25.091 20.667-35.539s-6.3-22.379-20.667-35.539c-17.017-15.588-43.254-30.636-76.91-43.676C717.462 655.282 618.108 639 511.656 639c-19.882 0-36-16.118-36-36s16.118-36 36-36z" fill="#2c2c2c" p-id="54199" data-spm-anchor-id="a313x.7781069.0.i235" class=""></path><path d="M629.56 80.101c23.34-21.4 59.593-19.797 80.975 3.58a57.43 57.43 0 0 1 12.027 20.373l86.392 255.625c6.711 19.858 2.077 41.795-12.088 57.223-31.652 34.475-67.673 58.27-107.79 70.817-43.395 13.572-90.716 13.722-141.456 0.885l-1.431-0.365a44.858 44.858 0 0 0-2.267-0.522c-45.074-9.155-82.436-8.731-112.227 0.586-20.815 6.51-40.004 18.008-57.808 34.816a57.252 57.252 0 0 1-14.436 9.958l70.725 220.356c0.028 0.09 0.069 0.225 0.12 0.404l-65.563 21.208-0.179-0.541-161.897-504.427-8.786-25.998a57.496 57.496 0 0 1-2.01-7.637l-0.692-2.158c-3.095-9.646-1.72-19.655 2.973-27.786a57.34 57.34 0 0 1 9.527-16.99c27.668-34.103 62.812-57.95 104.717-71.056 45.325-14.176 94.936-14.693 148.374-1.97l1.828 0.44 1.579 0.416c39.428 10.26 74.43 10.279 105.601 0.53 22.813-7.135 44.006-19.625 63.791-37.767zM440.8 183.461c-41.84-9.961-78.958-9.575-111.886 0.724-26.864 8.401-49.191 22.827-67.55 43.662l0.09-0.104 9.55 29.753 68.907 203.89 1.109-0.9c21.156-17.074 44.225-29.655 69.079-37.578l1.068-0.337c41.877-13.098 90.726-13.651 146.403-2.344 1.924 0.39 3.837 0.831 5.664 1.302l1.284 0.328c38.869 9.833 73.352 9.724 104.03 0.13 26.066-8.153 50.125-23.378 72.397-46.128l0.651-0.67-78.738-232.977-0.934 0.75c-22.952 18.303-47.83 31.786-74.515 40.287l-1.113 0.351c-44.476 13.91-92.978 13.747-144.89-0.002l0.424 0.111z" fill="#efb336" p-id="54200" data-spm-anchor-id="a313x.7781069.0.i236" class=""></path></svg>