<?xml version="1.0" standalone="no"?><!DOCTYPE svg PUBLIC "-//W3C//DTD SVG 1.1//EN" "http://www.w3.org/Graphics/SVG/1.1/DTD/svg11.dtd"><svg t="1587563605415" class="icon" viewBox="0 0 1024 1024" version="1.1" xmlns="http://www.w3.org/2000/svg" p-id="52261" data-spm-anchor-id="a313x.7781069.0.i224" xmlns:xlink="http://www.w3.org/1999/xlink" width="128" height="128"><defs><style type="text/css"></style></defs><path d="M860.40576 947.2H166.28224A84.5824 84.5824 0 0 1 81.92 862.59712V166.52288A84.5824 84.5824 0 0 1 166.28224 81.92h461.1328a29.27616 29.27616 0 0 1 0 58.55232H166.28224a26.04032 26.04032 0 0 0-25.99424 26.05056v696.07424a26.04032 26.04032 0 0 0 25.97376 26.05056h694.144a26.04032 26.04032 0 0 0 25.97376-26.05056V375.7312a29.184 29.184 0 1 1 58.368 0v486.86592A84.5824 84.5824 0 0 1 860.40576 947.2z" fill="#2c2c2c" p-id="52262" data-spm-anchor-id="a313x.7781069.0.i222" class=""></path><path d="M935.84384 172.8512l-69.12-76.24704a43.1872 43.1872 0 0 0-61.68064-2.42176L344.064 528.16384l-0.10752 0.10752a43.47392 43.47392 0 0 0-13.06112 25.31328l-26.55744 128.2048-0.47616 3.14368a43.264 43.264 0 0 0 55.1424 45.8496l112.52736-32.768a43.25888 43.25888 0 0 0 18.78528-11.264L934.70208 232.448a43.52 43.52 0 0 0 1.14176-59.5968z m-442.57792 427.3152L422.912 534.22592 765.20448 211.968l54.08768 54.91712z m-126.37696 67.38432l18.33472-88.52992 67.16928 62.93504-0.95744 0.97792zM860.16 225.09056l-52.39808-53.1968 26.0864-24.576 49.23904 54.31808z" fill="#efb336" p-id="52263" data-spm-anchor-id="a313x.7781069.0.i223" class=""></path></svg>