<?xml version="1.0" standalone="no"?><!DOCTYPE svg PUBLIC "-//W3C//DTD SVG 1.1//EN" "http://www.w3.org/Graphics/SVG/1.1/DTD/svg11.dtd"><svg t="1587562989404" class="icon" viewBox="0 0 1024 1024" version="1.1" xmlns="http://www.w3.org/2000/svg" p-id="42450" xmlns:xlink="http://www.w3.org/1999/xlink" width="128" height="128"><defs><style type="text/css"></style></defs><path d="M837.8 375.1H186.3c-16.5 0-30 13.5-30 30v404.6c0 16.5 13.5 30 30 30h651.4c16.5 0 30-13.5 30.1-30V405.1c0-16.5-13.5-30-30-30z m-35.9 377.5H215v-8h586.9v8z m0-20H215v-8h586.9v8z" fill="#2c2c2c" p-id="42451" data-spm-anchor-id="a313x.7781069.0.i198" class=""></path><path d="M787.3 887.9H781c-8.3 0-15 6.7-15 15s6.7 15 15 15h6.3c8.3 0 15-6.7 15-15s-6.8-15-15-15z" fill="#2c2c2c" p-id="42452" data-spm-anchor-id="a313x.7781069.0.i196" class=""></path><path d="M897 296.8H775.8L570.6 171.2c-3 9.8-8.5 18.6-15.7 25.6l163.4 100H305.8L471 196.6c-7.2-7-12.6-15.8-15.6-25.6L247.9 296.8H127c-24.8 0-45 20.2-45 45v531.1c0 24.8 20.2 45 45 45h555.9c8.3 0 15-6.7 15-15s-6.7-15-15-15H127c-8.3 0-15-6.7-15-15V341.8c0-8.3 6.7-15 15-15h770c8.3 0 15 6.7 15 15v531.1c0 8.3-6.7 15-15 15h-64.3c-8.3 0-15 6.7-15 15s6.7 15 15 15H897c24.8 0 45-20.2 45-45V341.8c0-24.8-20.2-45-45-45z" fill="#2c2c2c" p-id="42453" data-spm-anchor-id="a313x.7781069.0.i195" class=""></path><path d="M513 153.5m-47.4 0a47.4 47.4 0 1 0 94.8 0 47.4 47.4 0 1 0-94.8 0Z" fill="#2c2c2c" p-id="42454" data-spm-anchor-id="a313x.7781069.0.i197" class=""></path><path d="M313 686.2c-3.2-6.5-6.6-12-12.2-20.3l-49-73.9c-3.6-5.7-8.4-13.9-12.9-22.8 0.2 2.7 0.2 2.7 0.8 9.7 0.2 3.6 0.6 12.2 0.6 16.5v62.3c0 12.7 0.6 21.7 1.5 28.5H214c0.9-6.3 1.5-15.8 1.5-28.7v-98c0-9.9-0.4-16.7-1.5-24.5h29.6c1.7 4.8 5.1 10.4 11.6 20.1l48.1 72.4c4.6 6.8 10.6 16.7 14.8 24.3-0.8-7.4-1.3-18.8-1.3-26.8v-63.8c0-11.2-0.4-19-1.5-26.2H343c-1.1 7.6-1.5 14.6-1.5 26.2v100.5c0 10.6 0.4 17.9 1.5 24.5h-30zM477.9 687.5c-6.8-0.9-12.9-1.3-24.5-1.3h-59.3c-11.4 0-16.5 0.2-24.1 0.6 1.1-7.6 1.5-13.9 1.5-25.1V558.9c0-9.9-0.4-15.6-1.5-24.5 7.6 0.4 12.5 0.6 24.1 0.6h57.4c9.5 0 15.8-0.4 24.5-1.3v25.1c-7.2-1-13.3-1.3-24.5-1.3h-54.7v39.1H443c9.9 0 16.3-0.4 24.7-1.3v24.9c-7.8-1.1-12.9-1.3-24.7-1.3h-46.4v44.8h57c10.6 0 16.1-0.4 24.3-1.3v25.1zM617.5 686.2c-0.8-4.6-2.7-12.7-4.6-19.2l-20.3-70.7c-2.1-7.4-3.8-14.6-5.5-24.3-2.1 10.8-4 18.2-5.7 24.3L561.3 667c-2.3 8.5-3.8 14.6-4.4 19.2h-25.3c-1-4.8-1-4.8-5.1-19.6l-30.2-109.1c-3.2-11-5.1-16.9-7.6-22.6h30.4c0.4 6.5 1.3 12.2 3.4 20.5l17.7 72.4c1.3 5.9 3.4 15.6 4.6 22.2 2.5-11.8 3.8-17.1 5.3-22.4l21.1-73.3c2.3-8 3.6-14.2 4.2-19.4h23.4c0.6 4.6 2.3 12 4.4 19l21.3 73.1c1.3 4.9 2.3 8.7 5.3 23 1-4.4 1-4.4 2.1-11 0.6-3 2.1-10.4 2.5-12.2l17.7-71.6c1.9-7.2 3-15 3.2-20.3h30.4c-2.7 6.5-4.4 11.6-7.4 22.6l-30.4 108.9c-1.3 5.3-2.3 8.7-2.7 10.4-1.5 5.3-1.5 5.3-2.1 9.3l-25.6 0.1zM723.6 639.1c0.8 8.5 1.9 12.3 5.3 16.7 5.5 7.2 15.4 11.2 27.7 11.2 19 0 30.4-8.5 30.4-22.8 0-7.8-3.6-14.2-9.5-17.5-5.7-3-6.8-3.2-33.1-9.3-14.2-3.2-21.8-6.3-28.7-11.6-9.7-7.6-14.6-18-14.6-30.8 0-26.4 21.3-43.5 54-43.5 21.7 0 38 6.6 47.3 19.2 4.8 6.3 7 12 9.3 22l-27.2 3.2c-1.1-6.5-2.5-9.7-5.7-13.5-4.9-5.9-13.3-9.1-23.7-9.1-16.5 0-27.7 8.4-27.7 20.7 0 8 4.2 13.5 12.9 17.3 4.2 1.7 5.7 2.1 26.8 6.8 15 3.2 24.1 6.8 31 11.6 10.8 8 15.8 18.4 15.8 32.7 0 13.5-4.2 24.5-12 32.3-10.1 9.7-25.1 14.4-45.4 14.4-15.6 0-30.8-3.8-39.9-9.9-7.6-5.1-13.1-12.3-16.7-21.7-1.7-4.4-2.5-8-3.6-15.8l27.3-2.6z" fill="#efb336" p-id="42455" data-spm-anchor-id="a313x.7781069.0.i199" class=""></path></svg>