<?xml version="1.0" standalone="no"?><!DOCTYPE svg PUBLIC "-//W3C//DTD SVG 1.1//EN" "http://www.w3.org/Graphics/SVG/1.1/DTD/svg11.dtd"><svg t="1586784511870" class="icon" viewBox="0 0 1024 1024" version="1.1" xmlns="http://www.w3.org/2000/svg" p-id="9875" width="16" height="16" xmlns:xlink="http://www.w3.org/1999/xlink"><defs><style type="text/css"></style></defs><path d="M814.2 945.25H202.79c-24.84 0-48.33-10.88-64.43-29.84-15.8-18.61-22.61-42.98-18.69-66.86 14.97-91.14 62.04-174.6 132.53-235.01 71.28-61.09 162.3-94.73 256.29-94.73 93.99 0 185.01 33.64 256.29 94.73 70.49 60.41 117.56 143.87 132.53 235.01 3.92 23.88-2.89 48.25-18.69 66.86-16.09 18.97-39.58 29.84-64.42 29.84zM508.5 583.59c-162.04 0-298.69 115.85-324.91 275.46-1.14 6.96 2.11 12.03 4.15 14.44 3.77 4.44 9.26 6.99 15.05 6.99H814.2c5.79 0 11.28-2.55 15.05-6.99 2.04-2.4 5.29-7.47 4.15-14.44-26.22-159.61-162.86-275.46-324.9-275.46zM502.98 513.74c-59.1 0-114.66-23.01-156.45-64.8-41.79-41.79-64.81-97.35-64.81-156.45s23.02-114.66 64.81-156.45c41.79-41.79 97.35-64.81 156.45-64.81 59.1 0 114.66 23.02 156.45 64.81 41.79 41.79 64.8 97.35 64.8 156.45s-23.01 114.66-64.8 156.45-97.35 64.8-156.45 64.8z m0-377.74c-86.29 0-156.48 70.2-156.48 156.48s70.2 156.48 156.48 156.48 156.48-70.2 156.48-156.48S589.26 136 502.98 136z" fill="#231815" p-id="9876"></path><path d="M394.11 321.09c-9.65 0-17.74-7.54-18.3-17.29-2.04-35.73 9.95-70.12 33.77-96.83 23.82-26.71 56.62-42.55 92.35-44.59 10.12-0.57 18.78 7.15 19.36 17.26 0.58 10.11-7.15 18.78-17.26 19.36-25.95 1.48-49.77 12.98-67.06 32.38s-26.01 44.37-24.52 70.32c0.58 10.11-7.15 18.78-17.26 19.36-0.37 0.02-0.73 0.03-1.08 0.03z" fill="#F7B52C" p-id="9877"></path></svg>