<?xml version="1.0" standalone="no"?><!DOCTYPE svg PUBLIC "-//W3C//DTD SVG 1.1//EN" "http://www.w3.org/Graphics/SVG/1.1/DTD/svg11.dtd"><svg t="1587997117100" class="icon" viewBox="0 0 1024 1024" version="1.1" xmlns="http://www.w3.org/2000/svg" p-id="2242" width="64" height="64" xmlns:xlink="http://www.w3.org/1999/xlink"><defs><style type="text/css"></style></defs><path d="M315.79585 371.814179a14.998088 14.998088 0 0 0-21.098123 2.202013c-6.060036 7.472044-14.094083 11.586068-22.626133 11.586067-8.53205 0-16.566097-4.116024-22.626132-11.586067a15.000088 15.000088 0 0 0-23.300137 18.89611c11.694069 14.420084 28.434167 22.690133 45.926269 22.690133s34.230201-8.270048 45.926269-22.690133a15.000088 15.000088 0 0 0-2.202013-21.098123zM203.519192 282.773657a15.000088 15.000088 0 0 0-15.000087 15.000088v17.1381a15.000088 15.000088 0 0 0 30.000175 0v-17.1381a15.000088 15.000088 0 0 0-15.000088-15.000088zM340.623996 282.773657a15.000088 15.000088 0 0 0-15.000088 15.000088v17.1381a15.000088 15.000088 0 0 0 30.000176 0v-17.1381a15.000088 15.000088 0 0 0-15.000088-15.000088zM812.798762 457.502681a14.998088 14.998088 0 0 0-21.098123 2.202013c-6.060036 7.470044-14.096083 11.586068-22.626133 11.586067-8.53205 0-16.566097-4.116024-22.626132-11.586067a15.000088 15.000088 0 1 0-23.298137 18.89611c11.692069 14.422085 28.432167 22.690133 45.924269 22.690133s34.230201-8.270048 45.924269-22.690133a15.000088 15.000088 0 0 0-2.200013-21.098123zM700.522105 368.464159a15.000088 15.000088 0 0 0-15.000088 15.000088v17.1381a15.000088 15.000088 0 0 0 30.000176 0v-17.1381a15.000088 15.000088 0 0 0-15.000088-15.000088zM837.626908 368.464159a15.000088 15.000088 0 0 0-15.000088 15.000088v17.1381a15.000088 15.000088 0 0 0 30.000176 0v-17.1381a15.000088 15.000088 0 0 0-15.000088-15.000088z" p-id="2243" fill="#6699CC"></path><path d="M982.257755 665.093897l-117.514688-47.006275c-0.636004-0.254001-1.224007-0.578003-1.820011-0.890006 81.166476-18.468108 119.606701-49.352289 121.312711-50.750297a15.000088 15.000088 0 0 0 5.342031-13.72408c-0.170001-1.188007-16.9881-120.270705-16.988099-237.809394 0-112.220658-91.298535-203.519192-203.519193-203.519192s-203.517192 91.296535-203.517192 203.519192c0 30.74818-1.396008 68.356401-3.668022 103.958609l-32.746192 16.374096-96.120563-48.058281c-0.276002-0.138001-0.566003-0.238001-0.848005-0.358002a168.026985 168.026985 0 0 0 8.660051-41.960246c20.106118-6.212036 34.756204-24.974146 34.756204-47.094276 0-14.898087-6.656039-28.262166-17.138101-37.306219v-99.800585c0-27.570162-13.930082-53.366313-36.774215-68.866403-7.740045-28.760169-33.580197-48.962287-63.916375-48.962287h-137.104803c-74.420436 0-134.966791 60.546355-134.966791 134.966791v82.660484c-10.482061 9.042053-17.1381 22.408131-17.1381 37.306219 0 22.12013 14.650086 40.88224 34.756203 47.094276 3.788022 50.358295 29.740174 94.604554 68.072399 123.080721v41.460243L47.328277 546.623203C19.020111 555.117253 0 580.679402 0 610.235576v167.40298a15.000088 15.000088 0 0 0 15.000088 15.000088h2.138012v173.519017a15.000088 15.000088 0 0 0 30.000176 0v-173.519017h55.690327v173.519017a15.000088 15.000088 0 0 0 30.000175 0v-258.641515a66.208388 66.208388 0 0 0-11.154065-36.840216l-25.64015-38.460226a15.000088 15.000088 0 0 0-24.960147 16.640098l25.640151 38.462225c4.000023 6.000035 6.116036 12.984076 6.116036 20.198119v55.122323H30.000176v-152.402893c0-16.206095 10.428061-30.220177 25.952152-34.878205l51.494302-15.44809c17.932105 75.08444 86.034504 129.900761 164.624964 129.900761 28.234165 0 55.654326-6.962041 80.20847-20.210119 8.974053 12.242072 23.448137 20.210118 39.756233 20.210119h2.138013v2.138012c0 50.286295 27.664162 94.206552 68.552401 117.424688v24.466144c0 0.920005-0.588003 1.73601-1.462008 2.028012l-55.954328 18.652109a66.330389 66.330389 0 0 0-45.412266 63.006369v48.632285a15.000088 15.000088 0 0 0 30.000176 0V917.525376a36.364213 36.364213 0 0 1 24.898145-34.544202l16.454097-5.486032c21.768128 32.46419 58.378342 52.250306 97.888573 52.250306a117.79469 117.79469 0 0 0 97.892574-52.248306l16.450096 5.484032a36.366213 36.366213 0 0 1 24.898146 34.544202v48.632285a15.000088 15.000088 0 0 0 30.000176 0V917.525376a66.326389 66.326389 0 0 0-45.412266-63.004369l-55.954328-18.652109a2.136013 2.136013 0 0 1-1.462008-2.028012v-24.466144c30.614179-17.384102 53.786315-46.376272 63.506372-80.962474 28.346166 29.660174 67.936398 47.092276 110.010644 47.092276 66.424389 0 124.706731-42.938252 144.782849-105.456618l57.258335 22.902134c13.906081 5.562033 22.890134 18.83411 22.890134 33.808198v70.158411h-55.690326v-19.276113a15.000088 15.000088 0 0 0-30.000176 0v188.519105a15.000088 15.000088 0 0 0 30.000176 0v-139.242816h38.552226v139.242816a15.000088 15.000088 0 0 0 30.000176 0v-139.242816h2.138012a15.004088 15.004088 0 0 0 15.000088-15.000088v-85.158499c0.006-27.31616-16.380096-51.520302-41.742245-61.664361z m-386.702265-350.182052c0-95.678561 77.840456-173.519017 173.519016-173.519017s173.517017 77.840456 173.517017 173.519017c0 100.72659 12.130071 202.549187 16.072094 232.959365-13.442079 8.794052-47.85828 28.162165-106.036621 40.89024v-23.87014a167.952984 167.952984 0 0 0 22.768133-15.466091c29.516173-23.85814 50.374295-57.272336 58.726344-94.084551a170.124997 170.124997 0 0 0 4.196025-37.59822c0-84.782497-61.314359-96.954568-120.610707-108.726637-37.730221-7.490044-76.74445-15.236089-107.812631-40.090235a15.000088 15.000088 0 0 0-24.370143 11.714068c0 0.398002-0.654004 39.866234-57.190335 54.000317a15.000088 15.000088 0 0 0 7.276042 29.10617c47.320277-11.830069 66.62439-38.376225 74.496437-58.320341 32.528191 19.276113 68.966404 26.508155 101.758596 33.018193 63.378371 12.582074 96.452565 21.824128 96.452565 79.300465 0 10.452061-1.162007 20.868122-3.45202 30.960181-6.87004 30.268177-24.032141 57.752338-48.330283 77.392454-25.000146 20.208118-55.244324 30.888181-87.460513 30.888181-29.368172 0-57.318336-9.008053-81.038475-26.030153a169.492993 169.492993 0 0 0-41.06624-63.298371v-67.050393a14.998088 14.998088 0 0 0-21.708127-13.416078l-32.38619 16.192095c1.77601-31.238183 2.680016-60.938357 2.680016-88.470519z m21.414125 109.960644v54.286319l-54.288318-27.142159 54.288318-27.14416z m-175.657029 0l54.286318 27.14416-54.286318 27.142159v-54.286319z m-81.414477 164.246963v14.246083c-10.740063 9.274054-17.1381 22.846134-17.138101 37.166218-21.364125 12.622074-45.634267 19.278113-70.690414 19.278113-65.248382 0-121.698713-45.916269-135.820796-108.540636l37.058217-11.118065c9.142054 46.176271 49.944293 81.106475 98.764579 81.106475 38.766227 0 72.462425-22.034129 89.282523-54.224318a168.664988 168.664988 0 0 0-1.456008 22.08613zM201.38118 520.54305v-34.746204c21.524126 9.940058 45.468266 15.494091 70.690414 15.494091a168.236986 168.236986 0 0 0 70.690414-15.492091v34.766204c0 38.978228-31.710186 70.690414-70.690414 70.690414-38.914228 0-70.580414-31.608185-70.686414-70.498413l-0.004-0.214001z m70.690414-49.252289c-76.78045 0-139.242816-62.462366-139.242816-139.240815a15.000088 15.000088 0 0 0-15.000088-15.000088c-10.628062 0-19.276113-8.648051-19.276113-19.276113s8.646051-19.276113 19.276113-19.276113h34.276201a15.000088 15.000088 0 0 0 14.230084-10.25606l13.76808-41.304242c34.470202-0.778005 141.328828-5.624033 201.503181-35.71221a15.000088 15.000088 0 0 0 6.708039-20.124117 14.998088 14.998088 0 0 0-20.124118-6.70804c-64.562378 32.280189-197.615158 32.692192-198.951165 32.692192a15.000088 15.000088 0 0 0-14.228084 10.25806l-13.71808 41.156241H117.82869c-0.716004 0-1.428008 0.024-2.138012 0.054V177.807042c0-57.878339 47.088276-104.966615 104.966615-104.966615h137.104803c17.912105 0 32.960193 12.910076 35.78621 30.69418a15.000088 15.000088 0 0 0 7.446044 10.712062c16.936099 9.552056 27.458161 27.33816 27.45816 46.420272v87.882515c-0.710004-0.032-1.420008-0.054-2.138012-0.054h-17.1381a15.000088 15.000088 0 0 0 0 30.000176h17.1381c10.628062 0 19.276113 8.646051 19.276113 19.276113s-8.646051 19.276113-19.276113 19.276113a15.000088 15.000088 0 0 0-15.000088 15.000088c0 76.77845-62.462366 139.242816-139.242816 139.242815z m100.68859 49.278289v-52.620308a170.607 170.607 0 0 0 38.552226-39.856234v39.562232a169.478993 169.478993 0 0 0-38.658226 57.086335c0.058-1.386008 0.106001-2.774016 0.106-4.172025z m224.339315 346.948033c-16.514097 20.174118-41.322242 32.226189-67.958399 32.226189-26.604156 0-51.428301-12.060071-67.948398-32.228189l9.560056-3.186019a32.096188 32.096188 0 0 0 21.976129-30.488178v-11.95607a134.520788 134.520788 0 0 0 36.414213 5.032029 134.520788 134.520788 0 0 0 36.414214-5.032029v11.95607a32.088188 32.088188 0 0 0 21.974129 30.486178l9.568056 3.190019z m52.010304-207.707217a15.000088 15.000088 0 0 0-15.000088 15.000088v17.1381c-0.002 57.878339-47.090276 104.966615-104.968615 104.966615s-104.964615-47.088276-104.964615-104.966615v-17.1381a15.000088 15.000088 0 0 0-15.000087-15.000088h-17.138101c-10.628062 0-19.276113-8.646051-19.276113-19.276113 0-6.84004 3.620021-13.030076 9.682057-16.558097a14.910087 14.910087 0 0 0 3.552021-2.914017c37.080217-1.074006 157.278922-8.052047 236.277384-53.194312a15.000088 15.000088 0 0 0-14.884087-26.048152c-69.204405 39.544232-177.949043 47.462278-217.489274 49.044287v-1.74401c0-27.898163 8.44805-54.916322 23.756139-77.694455a14.934088 14.934088 0 0 0 4.772028 4.764028 15.002088 15.002088 0 0 0 14.594085 0.656003l96.120563-48.060281 96.120564 48.060281a15.004088 15.004088 0 0 0 14.594085-0.656003 14.968088 14.968088 0 0 0 4.770028-4.764028c15.30809 22.778133 23.756139 49.796292 23.756139 77.694455v21.892128a14.996088 14.996088 0 0 0 7.456044 12.964076c6.064036 3.530021 9.684057 9.718057 9.684057 16.558097 0 10.628062-8.648051 19.276113-19.276113 19.276113h-17.138101z m119.964703 85.690502c-41.528243 0-80.056469-21.142124-102.4846-55.698326 27.012158-0.186001 48.932287-22.21213 48.932287-49.266289 0-14.320084-6.398037-27.894163-17.138101-37.168218v-14.246083c0-6.038035-0.326002-12.042071-0.964006-17.990106 22.24213 10.428061 46.526273 15.850093 71.65442 15.850093 18.290107 0 36.378213-3.030018 53.552314-8.758051v21.966129c0 20.266119 12.158071 38.226224 30.974182 45.752268l32.346189 12.938076c-15.502091 51.2563-62.842368 86.620508-116.872685 86.620507z" p-id="2244" fill="#6699CC"></path><path d="M572.867357 714.574187a14.998088 14.998088 0 0 0-21.098124 2.202013c-6.062036 7.472044-14.096083 11.586068-22.626133 11.586068-8.53005 0-16.566097-4.114024-22.626132-11.586068a15.000088 15.000088 0 0 0-23.300137 18.896111c11.696069 14.418084 28.434167 22.690133 45.926269 22.690133s34.230201-8.270048 45.92627-22.688133a15.006088 15.006088 0 0 0-2.202013-21.100124z" p-id="2245" fill="#6699CC"></path><path d="M478.002801 657.739854m-15.000088 0a15.000088 15.000088 0 1 0 30.000176 0 15.000088 15.000088 0 1 0-30.000176 0Z" p-id="2246" fill="#6699CC"></path><path d="M580.003398 657.739854m-15.000087 0a15.000088 15.000088 0 1 0 30.000175 0 15.000088 15.000088 0 1 0-30.000175 0Z" p-id="2247" fill="#6699CC"></path></svg>