<?xml version="1.0" standalone="no"?><!DOCTYPE svg PUBLIC "-//W3C//DTD SVG 1.1//EN" "http://www.w3.org/Graphics/SVG/1.1/DTD/svg11.dtd"><svg t="1586750021837" class="icon" viewBox="0 0 1024 1024" version="1.1" xmlns="http://www.w3.org/2000/svg" p-id="3944" width="32" height="32" xmlns:xlink="http://www.w3.org/1999/xlink"><defs><style type="text/css"></style></defs><path d="M572.416 551.15776c0.8192 0.26624 1.69984 0.45056 2.72384 0.69632 34.4064 8.0896 66.80576 22.8352 95.88736 43.58144 0.7168 0.45056 1.41312 0.59392 2.17088 0.96256 10.42432 7.5776 20.41856 15.54432 29.83936 24.63744 9.56416 9.09312 25.00608 9.09312 34.57024-0.14336 9.44128-9.09312 9.44128-23.94112-0.12288-33.15712-34.83648-33.54624-76.55424-58.0608-121.6512-73.3184 61.50144-35.77856 102.95296-100.70016 102.95296-175.0016-0.06144-112.66048-95.15008-204.32896-212.04992-204.32896-116.87936 0-212.02944 91.66848-212.02944 204.32896 0 74.99776 42.25024 140.47232 104.93952 176.10752-124.06784 43.17184-213.11488 157.4912-213.11488 291.67616 0 3.42016 0.83968 6.61504 2.17088 9.48224 3.56352 8.54016 12.26752 14.72512 22.528 14.72512 13.4144 0 24.24832-10.4448 24.24832-23.36768 0-145.44896 122.7776-263.90528 273.79712-264.02816 1.57696 0 3.2768 0.12288 4.85376 0.12288 6.26688 0.14336 12.55424 0.4096 18.67776 0.96256 4.58752 0.26624 9.25696 0.96256 13.84448 1.51552 2.88768 0.26624 5.71392 0.69632 8.56064 1.2288C561.11104 548.864 566.84544 549.82656 572.416 551.15776zM506.75712 496.80384c-90.07104 0-163.4304-70.57408-163.4304-157.40928 0-86.69184 73.23648-157.40928 163.30752-157.40928 90.09152 0 163.30752 70.57408 163.30752 157.40928C669.92128 426.3936 596.82816 496.96768 506.75712 496.80384zM547.30752 667.25888c0 11.55072 9.74848 20.93056 21.79072 20.93056l251.02336 0c12.02176 0 21.79072-9.37984 21.79072-20.93056 0-11.5712-9.74848-20.93056-21.79072-20.93056L569.09824 646.32832C557.056 646.32832 547.30752 655.68768 547.30752 667.25888zM820.1216 717.5168 569.09824 717.5168c-12.02176 0-21.79072 9.37984-21.79072 20.93056s9.74848 20.93056 21.79072 20.93056l251.02336 0c12.02176 0 21.79072-9.37984 21.79072-20.93056S832.14336 717.5168 820.1216 717.5168zM820.1216 789.56544 569.09824 789.56544c-12.02176 0-21.79072 9.37984-21.79072 20.93056 0 11.55072 9.74848 20.93056 21.79072 20.93056l251.02336 0c12.02176 0 21.79072-9.37984 21.79072-20.93056C841.89184 798.94528 832.14336 789.56544 820.1216 789.56544z" p-id="3945" fill="#6699CC"></path></svg>