<?xml version="1.0" standalone="no"?><!DOCTYPE svg PUBLIC "-//W3C//DTD SVG 1.1//EN" "http://www.w3.org/Graphics/SVG/1.1/DTD/svg11.dtd"><svg t="1587730984170" class="icon" viewBox="0 0 1024 1024" version="1.1" xmlns="http://www.w3.org/2000/svg" p-id="6261" xmlns:xlink="http://www.w3.org/1999/xlink" width="64" height="64"><defs><style type="text/css"></style></defs><path d="M844.68452 780.874727l-81.193207 0 0 77.459163c0 6.118348-5.245468 11.123338-11.70253 11.123338l-30.430056 0c-6.412037 0-11.647271-5.006014-11.647271-11.123338l0-77.459163-81.247442 0c-6.460132 0-11.7056-4.948709-11.7056-11.146874l0-28.945239c0-6.219655 5.245468-11.200086 11.7056-11.200086l81.247442 0 0-77.431533c0-6.141884 5.235235-11.149944 11.647271-11.149944l30.430056 0c6.456039 0 11.70253 5.008061 11.70253 11.149944l0 77.431533 81.193207 0c6.460132 0 11.648294 5.02955 11.70253 11.200086l0 28.945239C856.38705 775.926018 851.145675 780.874727 844.68452 780.874727L844.68452 780.874727zM589.775876 548.661991c29.762861 9.268084 57.700143 22.641673 83.044368 39.427988 5.694699 3.76679 9.423627 10.090822 9.375531 17.325597 0 11.438517-9.53619 20.75879-21.23872 20.75879-4.663206 0-8.975419-1.512447-12.499685-4.052293l-0.053212 0.106424c-44.857651-29.577642-98.907661-46.843888-157.085688-46.843888-155.25704 0-281.172821 123.030058-281.172821 274.739295-0.718361 10.831696-10.039657 19.435655-21.292955 19.435655-11.280928 0-20.418029-8.603959-21.131273-19.435655-0.054235 0-0.107447-1.666966-0.107447-1.824555 0.820692-140.432403 95.227852-259.09499 225.325885-299.636335-68.503187-34.768875-115.321492-104.678084-115.321492-185.367825 0-115.37982 95.674013-208.853725 213.758432-208.853725 118.075209 0 213.775828 93.473905 213.775828 208.853725C705.15058 443.925578 658.307715 513.89414 589.775876 548.661991L589.775876 548.661991zM491.374752 196.172915c-94.463442 0-171.016978 74.830289-171.016978 167.120228 0 92.288916 76.552513 167.098739 171.016978 167.098739 94.456279 0 171.040515-74.809823 171.040515-167.098739C662.415266 271.003204 585.831031 196.172915 491.374752 196.172915L491.374752 196.172915zM491.374752 196.172915" p-id="6262" fill="#6699CC"></path></svg>