<?xml version="1.0" standalone="no"?><!DOCTYPE svg PUBLIC "-//W3C//DTD SVG 1.1//EN" "http://www.w3.org/Graphics/SVG/1.1/DTD/svg11.dtd"><svg t="1586750115077" class="icon" viewBox="0 0 1138 1024" version="1.1" xmlns="http://www.w3.org/2000/svg" p-id="5091" width="35.5625" height="32" xmlns:xlink="http://www.w3.org/1999/xlink"><defs><style type="text/css"></style></defs><path d="M1055.738 57.594c-45.439-36.351-154.492-27.262-304.439 86.333-213.562 159.036-308.983 368.052-445.298 572.527-22.719 31.807 13.632 49.983 40.895 36.351l86.333-49.983c13.632-4.544 18.175-4.544 13.632-27.262-9.088-68.158 18.176-131.772 59.070-186.298v0c149.947 63.614 331.702 27.262 395.317-154.492 81.789-18.176 159.036-109.053 172.667-172.666 13.632-45.439 9.088-86.333-18.175-104.509zM142.422 716.454c122.684 213.562 390.773 286.263 604.333 163.58 140.859-81.789 218.105-227.193 222.649-377.14 0-49.983-59.070-45.439-59.070 0 0 131.772-68.158 254.457-190.842 327.158-186.298 104.509-422.579 40.895-527.088-140.859-109.053-186.298-45.439-422.579 140.859-527.088 99.965-59.070 222.649-68.158 322.614-27.262 40.895 13.632 59.070-40.895 18.175-54.527-118.141-40.895-249.911-36.351-368.052 31.807-213.562 122.684-286.263 395.317-163.58 604.333z" p-id="5092" fill="#6699CC"></path></svg>