<?xml version="1.0" standalone="no"?><!DOCTYPE svg PUBLIC "-//W3C//DTD SVG 1.1//EN" "http://www.w3.org/Graphics/SVG/1.1/DTD/svg11.dtd"><svg t="1587178502609" class="icon" viewBox="0 0 1024 1024" version="1.1" xmlns="http://www.w3.org/2000/svg" p-id="2121" width="32" height="32" xmlns:xlink="http://www.w3.org/1999/xlink"><defs><style type="text/css"></style></defs><path d="M516.864 128c28.016 0 42.48 14.192 83.568 63.04 27.056 32.192 57.904 73.264 86.32 115.552 75.728 112.64 122.992 213.648 122.992 287.552 0 164.208-130.912 297.68-292.88 297.68C354.912 891.84 224 758.352 224 594.144c0-73.92 47.264-174.912 122.992-287.552 28.416-42.288 59.248-83.36 86.32-115.536C474.4 142.192 488.864 128 516.864 128z m0 48C496.576 176 272 456.256 272 594.144c0 137.904 109.632 249.68 244.864 249.68 135.248 0 244.88-111.776 244.88-249.68C761.744 456.256 537.168 176 516.864 176z m-18.048 519.792a16 16 0 0 1-5.472-21.952l37.056-61.616h-83.28a16 16 0 0 1-13.728-24.208l65.728-110.08a16 16 0 0 1 21.952-5.52l13.728 8.208a16 16 0 0 1 5.536 21.936l-36.832 61.664h83.472a16 16 0 0 1 13.712 24.24l-66.192 110.112a16 16 0 0 1-21.968 5.472l-13.712-8.256z" p-id="2122" fill="#6699CC"></path></svg>