<?xml version="1.0" standalone="no"?><!DOCTYPE svg PUBLIC "-//W3C//DTD SVG 1.1//EN" "http://www.w3.org/Graphics/SVG/1.1/DTD/svg11.dtd"><svg t="1586750054495" class="icon" viewBox="0 0 1024 1024" version="1.1" xmlns="http://www.w3.org/2000/svg" p-id="4181" width="32" height="32" xmlns:xlink="http://www.w3.org/1999/xlink"><defs><style type="text/css"></style></defs><path d="M412 664.7c-14.3 0-28.6-1.2-42.9-3.7-50.7-8.8-96.8-32.7-133.3-69.2-37-37-61-83.7-69.5-135.1-8.3-50.3-1.3-101.2 20.4-147.1l9.1-19.3L349.5 444l90.4-90.4-153.7-153.8 19.3-9.1c45.9-21.7 96.8-28.7 147.1-20.4 51.4 8.5 98.2 32.5 135.1 69.5 36.5 36.5 60.4 82.6 69.2 133.3 8.6 49.6 2.2 99.9-18.5 145.5l-27.3-12.4c37.4-82.5 19.5-181.1-44.6-245.2-60-60-149.3-79.5-228.1-51.5l143.9 143.9-132.8 133-144-144c-28 78.8-8.5 168.1 51.5 228.1 64.1 64.1 162.6 82 245.2 44.6l12.4 27.3c-32.5 14.8-67.3 22.3-102.6 22.3z" p-id="4182" fill="#6699CC"></path><path d="M730.7 851.4c-12.9 0-25.8-4.9-35.6-14.7L497.8 639.4c-5.9-5.9-5.9-15.4 0-21.2 5.9-5.9 15.4-5.9 21.2 0l197.3 197.3c7.9 7.9 20.8 7.9 28.7 0l66.4-66.4c3.8-3.8 5.9-8.9 5.9-14.4 0-5.4-2.1-10.5-5.9-14.4L614.2 523.1c-5.9-5.9-5.9-15.4 0-21.2 5.9-5.9 15.4-5.9 21.2 0l197.3 197.3c9.5 9.5 14.7 22.1 14.7 35.6s-5.2 26.1-14.7 35.6l-66.4 66.4c-9.9 9.7-22.7 14.6-35.6 14.6z" p-id="4183" fill="#6699CC"></path></svg>