<?xml version="1.0" standalone="no"?><!DOCTYPE svg PUBLIC "-//W3C//DTD SVG 1.1//EN" "http://www.w3.org/Graphics/SVG/1.1/DTD/svg11.dtd"><svg t="1586749964660" class="icon" viewBox="0 0 1024 1024" version="1.1" xmlns="http://www.w3.org/2000/svg" p-id="3006" width="32" height="32" xmlns:xlink="http://www.w3.org/1999/xlink"><defs><style type="text/css"></style></defs><path d="M780.25 355.85c-11.45 0-20.78 9.31-20.78 20.77v430.55c0 18.22-14.82 33.05-33.04 33.05H242.06c-18.22 0-33.05-14.83-33.05-33.05V268.98c0-18.22 14.83-33.04 33.05-33.04h376.73c11.45 0 20.78-9.32 20.78-20.78 0-11.45-9.32-20.78-20.78-20.78H242.06c-41.13 0-74.6 33.46-74.6 74.59v538.19c0 41.14 33.46 74.6 74.6 74.6h484.37c41.13 0 74.59-33.46 74.59-74.6V376.62c0-11.46-9.32-20.77-20.77-20.77z" p-id="3007" fill="#6699CC"></path><path d="M275.09 591.9c0 11.45 9.32 20.77 20.78 20.77h322.91c11.45 0 20.78-9.31 20.78-20.77 0-11.45-9.32-20.78-20.78-20.78H295.87c-11.45 0-20.78 9.32-20.78 20.78zM457.33 409.66H295.87c-11.45 0-20.78 9.32-20.78 20.78s9.32 20.78 20.78 20.78h161.46c11.45 0 20.77-9.32 20.77-20.78s-9.31-20.78-20.77-20.78zM850.44 148.33c-3.93-3.93-9.14-6.09-14.69-6.09-5.55 0-10.76 2.16-14.69 6.09L553.65 415.75c-3.93 3.93-6.09 9.15-6.09 14.69s2.16 10.75 6.09 14.68c3.7 3.71 9.05 5.83 14.7 5.83h0.02c5.64 0 10.97-2.12 14.64-5.82L850.44 177.7c3.93-3.93 6.09-9.15 6.09-14.69s-2.16-10.75-6.09-14.68z" p-id="3008" fill="#6699CC"></path></svg>