<?xml version="1.0" standalone="no"?><!DOCTYPE svg PUBLIC "-//W3C//DTD SVG 1.1//EN" "http://www.w3.org/Graphics/SVG/1.1/DTD/svg11.dtd"><svg t="1587561882933" class="icon" viewBox="0 0 1080 1024" version="1.1" xmlns="http://www.w3.org/2000/svg" p-id="37360" xmlns:xlink="http://www.w3.org/1999/xlink" width="135" height="128"><defs><style type="text/css"></style></defs><path d="M791.943263 360.206724V315.394276c0-173.41706-140.981384-314.398444-314.398445-314.398444s-314.398444 140.981384-314.398444 314.398444v44.812448c-73.407058 4.410114-131.876632 65.4404-131.876632 139.985552v382.115032c0 77.248124 62.879689 140.270075 140.270075 140.270075h612.010003c77.248124 0 140.270075-62.879689 140.270075-140.270075V500.192276c0-74.545151-58.469575-135.717699-131.876632-139.985552z m-314.398445-290.498472c135.433176 0 245.686024 110.110586 245.686024 245.543762v44.527925H231.858795V315.394276c0-135.433176 110.252848-245.686024 245.686023-245.686024z m377.420395 812.599056c0 39.406502-32.008891 71.415393-71.415393 71.415393H171.539817c-39.406502 0-71.415393-32.008891-71.415393-71.415393V500.192276c0-39.406502 32.008891-71.415393 71.415393-71.415394h612.010003c39.406502 0 71.415393 32.008891 71.415393 71.415394v382.115032z m0 0" fill="#162626" p-id="37361"></path><path d="M477.544818 510.008336c-73.691581 0-133.583773 59.892192-133.583773 133.583773 0 61.741595 42.109475 113.809391 99.156433 129.031398v93.465962c0 19.063073 15.364268 34.427341 34.42734 34.427341s34.427341-15.364268 34.427341-34.427341v-93.465962c57.046957-15.222006 99.156432-67.289803 99.156433-129.031398 0-73.691581-59.892192-133.583773-133.583774-133.583773z m0 198.312864c-35.707697 0-64.871353-29.021395-64.871353-64.729091s29.163657-64.729091 64.871353-64.729091 64.871353 29.021395 64.871354 64.729091c-0.142262 35.707697-29.163657 64.729091-64.871354 64.729091z m0 0" fill="#162626" p-id="37362"></path></svg>