<?xml version="1.0" standalone="no"?><!DOCTYPE svg PUBLIC "-//W3C//DTD SVG 1.1//EN" "http://www.w3.org/Graphics/SVG/1.1/DTD/svg11.dtd"><svg t="1587561676662" class="icon" viewBox="0 0 1024 1024" version="1.1" xmlns="http://www.w3.org/2000/svg" p-id="35875" xmlns:xlink="http://www.w3.org/1999/xlink" width="128" height="128"><defs><style type="text/css"></style></defs><path d="M623.74 578.24c50.25-32 82.22-89.08 82.22-153 0-100.49-82.22-182.71-182.71-182.71s-182.71 82.19-182.71 182.68c0 64 32 121.05 82.22 153C294.86 619.35 203.5 740.4 203.5 882h45.68c0-150.74 123.33-274.07 274.07-274.07S797.32 731.26 797.32 882H843c0-141.6-91.36-262.65-219.26-303.76zM523.25 559c-75.37 0-137-61.67-137-137s61.67-137 137-137 137 61.66 137 137-61.63 137-137 137z" fill="#333333" p-id="35876"></path><path d="M512.25 10C234 10 8.5 235.54 8.5 513.75S234 1017.5 512.25 1017.5 1016 792 1016 513.75 790.46 10 512.25 10z m3.94 936.66c-241.27 0-436.85-195.58-436.85-436.85S274.92 73 516.19 73 953 268.55 953 509.81 757.45 946.66 516.19 946.66z" fill="#333333" p-id="35877"></path></svg>