<?xml version="1.0" standalone="no"?><!DOCTYPE svg PUBLIC "-//W3C//DTD SVG 1.1//EN" "http://www.w3.org/Graphics/SVG/1.1/DTD/svg11.dtd"><svg t="1587218628458" class="icon" viewBox="0 0 1024 1024" version="1.1" xmlns="http://www.w3.org/2000/svg" p-id="4433" width="32" height="32" xmlns:xlink="http://www.w3.org/1999/xlink"><defs><style type="text/css"></style></defs><path d="M467.168 672.144a37.008 37.008 0 0 1-25.12-9.6l-161.808-150.72a37.12 37.12 0 1 1 50.24-54.672l136.688 127.072 252.672-235.68a37.12 37.12 0 1 1 50.24 54.672L491.536 661.744a32 32 0 0 1-24.368 10.4z" p-id="4434" fill="#6699CC"></path><path d="M512 982.16a484.4 484.4 0 0 1-191.856-39.824 36.32 36.32 0 1 1 28.96-66.608 409.248 409.248 0 1 0-173.024-143.344 36.448 36.448 0 0 1-60.096 41.264A480.112 480.112 0 1 1 512 982.16z" p-id="4435" fill="#6699CC"></path></svg>