<?xml version="1.0" standalone="no"?><!DOCTYPE svg PUBLIC "-//W3C//DTD SVG 1.1//EN" "http://www.w3.org/Graphics/SVG/1.1/DTD/svg11.dtd"><svg t="1587134026224" class="icon" viewBox="0 0 1024 1024" version="1.1" xmlns="http://www.w3.org/2000/svg" p-id="13752" width="32" height="32" xmlns:xlink="http://www.w3.org/1999/xlink"><defs><style type="text/css"></style></defs><path d="M512 311.854545H279.272727v65.163637h232.727273V311.854545z m-232.727273 260.654546h465.454546v-65.163636H279.272727v65.163636z m0 195.490909h465.454546v-65.163636H279.272727v65.163636zM921.6 260.654545L698.181818 55.854545c-4.654545-4.654545-13.963636-9.309091-18.618182-9.30909H125.672727c-18.618182 0-32.581818 13.963636-32.581818 32.581818v865.745454c0 18.618182 13.963636 32.581818 32.581818 32.581818h777.309091c18.618182 0 32.581818-13.963636 32.581818-32.581818V283.927273c-4.654545-4.654545-9.309091-13.963636-13.963636-23.272728z m-228.072727-125.672727l167.563636 158.254546h-167.563636V134.981818z m172.218182 777.309091H158.254545V111.709091h470.109091V325.818182c0 18.618182 13.963636 32.581818 32.581819 32.581818h209.454545v553.890909z" p-id="13753" fill="#6699CC"></path></svg>