<?xml version="1.0" standalone="no"?><!DOCTYPE svg PUBLIC "-//W3C//DTD SVG 1.1//EN" "http://www.w3.org/Graphics/SVG/1.1/DTD/svg11.dtd"><svg t="1587043977829" class="icon" viewBox="0 0 1024 1024" version="1.1" xmlns="http://www.w3.org/2000/svg" p-id="7153" width="32" height="32" xmlns:xlink="http://www.w3.org/1999/xlink"><defs><style type="text/css"></style></defs><path d="M512 0C230.4 0 0 230.4 0 512c0 281.6 230.4 512 512 512 281.6 0 512-230.4 512-512C1024 230.4 793.6 0 512 0zM512 972.8c-253.44 0-460.8-207.36-460.8-460.8 0-253.44 207.36-460.8 460.8-460.8s460.8 207.36 460.8 460.8C972.8 765.44 765.44 972.8 512 972.8z" p-id="7154" fill="#6699CC"></path><path d="M675.84 491.52C675.84 488.96 678.4 488.96 675.84 491.52l0-153.6 71.68 69.12c10.24 10.24 25.6 10.24 35.84 0 10.24-10.24 10.24-25.6 0-35.84L668.16 256c-10.24-10.24-25.6-10.24-35.84 0l-112.64 112.64c-2.56 2.56-5.12 7.68-5.12 12.8-10.24-69.12-69.12-122.88-140.8-122.88-79.36 0-143.36 64-143.36 143.36 0 71.68 51.2 130.56 120.32 140.8l0 64-69.12 0c-15.36 0-25.6 10.24-25.6 25.6 0 15.36 10.24 25.6 25.6 25.6l69.12 0 0 74.24c0 15.36 10.24 25.6 25.6 25.6 15.36 0 25.6-10.24 25.6-25.6l0-74.24 66.56 0c15.36 0 25.6-10.24 25.6-25.6 0-15.36-10.24-25.6-25.6-25.6l-66.56 0 0-64c0 0 0 0 0 0 66.56-12.8 117.76-71.68 117.76-140.8 0-2.56 0-2.56 0-5.12 0 2.56 2.56 5.12 5.12 7.68 5.12 5.12 12.8 7.68 17.92 7.68s12.8-2.56 17.92-7.68l69.12-69.12 0 153.6c0 0 0 0 0 0-64 12.8-115.2 69.12-115.2 138.24 0 76.8 64 140.8 140.8 140.8s140.8-64 140.8-140.8C791.04 558.08 742.4 501.76 675.84 491.52zM371.2 496.64c-51.2 0-92.16-40.96-92.16-92.16 0-51.2 40.96-92.16 92.16-92.16 51.2 0 92.16 40.96 92.16 92.16C463.36 455.68 422.4 496.64 371.2 496.64zM652.8 716.8c-48.64 0-89.6-40.96-89.6-89.6s40.96-89.6 89.6-89.6 89.6 40.96 89.6 89.6S701.44 716.8 652.8 716.8z" p-id="7155" fill="#6699CC"></path></svg>