<?xml version="1.0" standalone="no"?><!DOCTYPE svg PUBLIC "-//W3C//DTD SVG 1.1//EN" "http://www.w3.org/Graphics/SVG/1.1/DTD/svg11.dtd"><svg t="1587817887128" class="icon" viewBox="0 0 1024 1024" version="1.1" xmlns="http://www.w3.org/2000/svg" p-id="3207" xmlns:xlink="http://www.w3.org/1999/xlink" width="64" height="64"><defs><style type="text/css"></style></defs><path d="M810.678 64.014H213.336c-11.78 0-21.326 9.56-21.326 21.342v917.316c0 11.782 9.546 21.312 21.326 21.312h597.342c11.75 0 21.312-9.532 21.312-21.312V85.356c0-11.782-9.562-21.342-21.312-21.342z" fill="#ED5564" p-id="3208"></path><path d="M384.004 149.354h-85.326c-11.782 0-21.344 9.562-21.344 21.344v127.996c0 11.782 9.562 21.312 21.344 21.312h85.326c11.782 0 21.326-9.532 21.326-21.312V170.698c0-11.782-9.544-21.344-21.326-21.344z" fill="#4FC2E9" p-id="3209"></path><path d="M384.004 149.354h-85.326c-11.782 0-21.344 9.562-21.344 21.344v42.654h127.996V170.698c0-11.782-9.544-21.344-21.326-21.344z" fill="#E6E9ED" p-id="3210"></path><path d="M554.686 149.354h-85.356c-11.782 0-21.328 9.562-21.328 21.344v127.996c0 11.782 9.546 21.312 21.328 21.312h85.356c11.75 0 21.31-9.532 21.31-21.312V170.698c0-11.782-9.56-21.344-21.31-21.344z" fill="#4FC2E9" p-id="3211"></path><path d="M554.686 149.354h-85.356c-11.782 0-21.328 9.562-21.328 21.344v42.654h127.994V170.698c0-11.782-9.56-21.344-21.31-21.344z" fill="#E6E9ED" p-id="3212"></path><path d="M725.304 149.354h-85.308c-11.782 0-21.312 9.562-21.312 21.344v127.996a21.3 21.3 0 0 0 21.312 21.312h85.308c11.812 0 21.376-9.532 21.376-21.312V170.698c0-11.782-9.562-21.344-21.376-21.344z" fill="#4FC2E9" p-id="3213"></path><path d="M725.304 149.354h-85.308c-11.782 0-21.312 9.562-21.312 21.344v42.654h127.996V170.698c0-11.782-9.562-21.344-21.376-21.344z" fill="#E6E9ED" p-id="3214"></path><path d="M384.004 362.692h-85.326c-11.782 0-21.344 9.532-21.344 21.312V512c0 11.782 9.562 21.344 21.344 21.344h85.326c11.782 0 21.326-9.562 21.326-21.344v-127.996c0-11.782-9.544-21.312-21.326-21.312z" fill="#4FC2E9" p-id="3215"></path><path d="M384.004 362.692h-85.326c-11.782 0-21.344 9.532-21.344 21.312v42.686h127.996v-42.686c0-11.782-9.544-21.312-21.326-21.312z" fill="#E6E9ED" p-id="3216"></path><path d="M554.686 362.692h-85.356c-11.782 0-21.328 9.532-21.328 21.312V512c0 11.782 9.546 21.344 21.328 21.344h85.356c11.75 0 21.31-9.562 21.31-21.344v-127.996c0-11.782-9.56-21.312-21.31-21.312z" fill="#4FC2E9" p-id="3217"></path><path d="M554.686 362.692h-85.356c-11.782 0-21.328 9.532-21.328 21.312v42.686h127.994v-42.686c0-11.782-9.56-21.312-21.31-21.312z" fill="#E6E9ED" p-id="3218"></path><path d="M725.304 362.692h-85.308a21.3 21.3 0 0 0-21.312 21.312V512c0 11.782 9.532 21.344 21.312 21.344h85.308c11.812 0 21.376-9.562 21.376-21.344v-127.996c0-11.782-9.562-21.312-21.376-21.312z" fill="#4FC2E9" p-id="3219"></path><path d="M725.304 362.692h-85.308a21.3 21.3 0 0 0-21.312 21.312v42.686h127.996v-42.686c0-11.782-9.562-21.312-21.376-21.312z" fill="#E6E9ED" p-id="3220"></path><path d="M384.004 575.998h-85.326c-11.782 0-21.344 9.562-21.344 21.342v127.996c0 11.782 9.562 21.344 21.344 21.344h85.326c11.782 0 21.326-9.562 21.326-21.344V597.34c0-11.78-9.544-21.342-21.326-21.342z" fill="#4FC2E9" p-id="3221"></path><path d="M384.004 575.998h-85.326c-11.782 0-21.344 9.562-21.344 21.342v42.656h127.996V597.34c0-11.78-9.544-21.342-21.326-21.342z" fill="#E6E9ED" p-id="3222"></path><path d="M554.686 575.998h-85.356c-11.782 0-21.328 9.562-21.328 21.342v127.996c0 11.782 9.546 21.344 21.328 21.344h85.356c11.75 0 21.31-9.562 21.31-21.344V597.34c0-11.78-9.56-21.342-21.31-21.342z" fill="#4FC2E9" p-id="3223"></path><path d="M554.686 575.998h-85.356c-11.782 0-21.328 9.562-21.328 21.342v42.656h127.994V597.34c0-11.78-9.56-21.342-21.31-21.342z" fill="#E6E9ED" p-id="3224"></path><path d="M725.304 575.998h-85.308c-11.782 0-21.312 9.562-21.312 21.342v127.996c0 11.782 9.532 21.344 21.312 21.344h85.308c11.812 0 21.376-9.562 21.376-21.344V597.34c0-11.78-9.562-21.342-21.376-21.342z" fill="#4FC2E9" p-id="3225"></path><path d="M725.304 575.998h-85.308c-11.782 0-21.312 9.562-21.312 21.342v42.656h127.996V597.34c0-11.78-9.562-21.342-21.376-21.342z" fill="#E6E9ED" p-id="3226"></path><path d="M384.004 789.336h-85.326c-11.782 0-21.344 9.562-21.344 21.344v127.996c0 11.782 9.562 21.31 21.344 21.31h85.326c11.782 0 21.326-9.53 21.326-21.31V810.68c0-11.782-9.544-21.344-21.326-21.344z" fill="#4FC2E9" p-id="3227"></path><path d="M384.004 789.336h-85.326c-11.782 0-21.344 9.562-21.344 21.344v42.654h127.996V810.68c0-11.782-9.544-21.344-21.326-21.344z" fill="#E6E9ED" p-id="3228"></path><path d="M725.304 789.336h-85.308c-11.782 0-21.312 9.562-21.312 21.344v127.996a21.296 21.296 0 0 0 21.312 21.31h85.308c11.812 0 21.376-9.53 21.376-21.31V810.68c0-11.782-9.562-21.344-21.376-21.344z" fill="#4FC2E9" p-id="3229"></path><path d="M725.304 789.336h-85.308c-11.782 0-21.312 9.562-21.312 21.344v42.654h127.996V810.68c0-11.782-9.562-21.344-21.376-21.344z" fill="#E6E9ED" p-id="3230"></path><path d="M938.676 1023.984c-11.812 0-21.376-9.532-21.376-21.312v-127.996c0-11.782 9.562-21.342 21.376-21.342 11.748 0 21.31 9.56 21.31 21.342v127.996c0 11.782-9.562 21.312-21.31 21.312z" fill="#A85D5D" p-id="3231"></path><path d="M938.676 938.676c-47.062 0-85.376-38.282-85.376-85.342 0-19.968 7.468-69.498 19.5-114.716 18.124-68.184 38.438-98.622 65.876-98.622 27.436 0 47.746 30.438 65.872 98.622 12 45.218 19.438 94.748 19.438 114.716-0.002 47.06-38.282 85.342-85.31 85.342z" fill="#A0D468" p-id="3232"></path><path d="M85.34 1023.984c-11.782 0-21.326-9.532-21.326-21.312v-127.996c0-11.782 9.544-21.342 21.326-21.342s21.344 9.56 21.344 21.342v127.996c0 11.782-9.562 21.312-21.344 21.312z" fill="#A85D5D" p-id="3233"></path><path d="M85.34 938.676c-47.044 0-85.324-38.282-85.324-85.342 0-19.968 7.436-69.498 19.452-114.716 18.124-68.184 38.438-98.622 65.874-98.622 27.438 0 47.75 30.438 65.874 98.622 12.016 45.218 19.468 94.748 19.468 114.716-0.002 47.06-38.282 85.342-85.344 85.342z" fill="#A0D468" p-id="3234"></path><path d="M831.99 0.016H192.01c-11.782 0-21.328 9.56-21.328 21.342v63.998c0 11.782 9.546 21.344 21.328 21.344h639.98c11.78 0 21.31-9.562 21.31-21.344V21.358c0-11.782-9.53-21.342-21.31-21.342z" fill="#656D78" p-id="3235"></path><path d="M256.008 64.014c-11.782 0-21.328 9.56-21.328 21.342V106.7h42.654V85.356c0-11.782-9.544-21.342-21.326-21.342zM341.332 64.014c-11.78 0-21.326 9.56-21.326 21.342V106.7h42.67V85.356c0-11.782-9.562-21.342-21.344-21.342zM426.674 64.014c-11.782 0-21.344 9.56-21.344 21.342V106.7h42.672V85.356c0-11.782-9.546-21.342-21.328-21.342zM512 64.014c-11.782 0-21.328 9.56-21.328 21.342V106.7h42.656V85.356c0-11.782-9.546-21.342-21.328-21.342zM597.308 64.014c-11.75 0-21.312 9.56-21.312 21.342V106.7h42.688V85.356c0-11.782-9.562-21.342-21.376-21.342zM682.682 64.014c-11.81 0-21.374 9.56-21.374 21.342V106.7h42.686V85.356c0-11.782-9.562-21.342-21.312-21.342zM767.992 64.014c-11.782 0-21.312 9.56-21.312 21.342V106.7h42.624V85.356c0-11.782-9.53-21.342-21.312-21.342z" fill="#434A54" p-id="3236"></path><path d="M554.686 789.336h-85.356c-11.782 0-21.328 9.562-21.328 21.344v213.304h127.994V810.68c0-11.782-9.56-21.344-21.31-21.344z" fill="#F6BB42" p-id="3237"></path></svg>