<?xml version="1.0" standalone="no"?><!DOCTYPE svg PUBLIC "-//W3C//DTD SVG 1.1//EN" "http://www.w3.org/Graphics/SVG/1.1/DTD/svg11.dtd"><svg t="1587133546593" class="icon" viewBox="0 0 1076 1024" version="1.1" xmlns="http://www.w3.org/2000/svg" p-id="5448" width="33.625" height="32" xmlns:xlink="http://www.w3.org/1999/xlink"><defs><style type="text/css"></style></defs><path d="M598.853745 462.373499C598.853745 459.952694 598.853745 459.952694 596.432942 459.952694L596.432942 459.952694C596.432942 457.53189 594.012134 455.111088 591.591332 452.690283L591.591332 452.690283C589.170529 450.269479 589.170529 447.848676 586.749727 445.427872L584.328924 443.007068C581.908116 440.586263 581.908116 440.586263 579.487314 438.16546 577.066511 438.16546 577.066511 435.744656 574.645709 435.744656L572.224906 433.323852C569.804099 433.323852 567.383296 430.903048 564.962493 430.903048L562.541691 430.903048 560.120883 430.903048 555.279278 430.903048 555.279278 430.903048C548.016865 430.903048 538.33365 430.903048 531.071239 433.323852L492.338379 440.586265C465.709538 447.848676 451.184715 474.477517 458.447127 498.685556 463.288734 513.210378 472.97195 525.314396 485.075968 530.156006L434.239089 716.557896C429.397481 731.082716 434.239089 745.607542 441.5015 757.71156L443.922304 760.132362 446.343109 762.55317C458.447127 774.657188 475.392754 781.919596 494.759183 777.07799L540.754458 764.973972C567.383296 757.71156 581.908122 731.082721 574.645709 706.87468 569.804104 692.34986 560.120883 680.245842 545.596063 675.404232L594.01214 491.423144C601.274547 481.73993 601.274547 472.056714 598.853745 462.373499L598.853745 462.373499ZM661.794642 21.787211C390.664619-50.836903 112.272185 108.936147 39.648072 380.066171-32.976042 651.196196 126.797008 929.588628 397.927032 1002.212741 538.33365 1038.5248 678.74027 1014.316759 792.518047 944.113454L792.518047 944.113454C807.042872 936.851041 816.726088 919.905413 816.726088 902.95979 816.726088 876.330947 794.938854 854.543713 768.310011 854.543713 758.626796 854.543713 748.94358 856.964516 739.260365 864.226929 647.269821 919.905413 533.492045 939.271844 422.135072 907.801395 201.841927 849.702108 73.539327 624.567352 131.638618 404.274209 189.737908 183.981065 414.87266 55.678465 635.165804 113.777756 855.458949 171.877046 983.761551 397.011798 925.662259 617.304945 915.979044 656.037806 899.033416 689.929057 879.666985 723.820308L879.666985 723.820308C874.82538 731.082721 872.404577 740.765937 872.404577 750.449152 872.404577 777.07799 894.191811 798.865224 920.820649 798.865224 937.766277 798.865224 954.711905 789.182008 961.974313 774.657188L961.974313 774.657188C986.182354 733.503524 1005.548785 689.929057 1017.652803 643.933783 1095.11852 372.80376 932.924667 94.411324 661.794642 21.787211L661.794642 21.787211ZM625.482588 317.125272C632.744996 285.654822 615.799373 254.184374 584.328924 246.921962 552.85847 239.659551 521.388025 256.605178 514.125614 288.075626 506.863202 319.546075 523.808829 351.016524 555.279278 358.278936 586.749727 365.541348 618.220175 346.174917 625.482588 317.125272L625.482588 317.125272Z" p-id="5449" fill="#6699CC"></path></svg>