<?xml version="1.0" standalone="no"?><!DOCTYPE svg PUBLIC "-//W3C//DTD SVG 1.1//EN" "http://www.w3.org/Graphics/SVG/1.1/DTD/svg11.dtd"><svg t="1587297822482" class="icon" viewBox="0 0 1024 1024" version="1.1" xmlns="http://www.w3.org/2000/svg" p-id="2232" width="32" height="32" xmlns:xlink="http://www.w3.org/1999/xlink"><defs><style type="text/css"></style></defs><path d="M792.9 482.2H405.8c-11.4 0-21.2 9.8-21.2 21.2 0 11.4 9.8 21.2 21.2 21.2h387.1c11.4 0 21.2-9.8 21.2-21.2 0-13-9.8-21.2-21.2-21.2z m0 178.1H405.8c-11.4 0-21.2 9.8-21.2 21.2s9.8 21.2 21.2 21.2h387.1c11.4 0 21.2-9.8 21.2-21.2s-9.8-21.2-21.2-21.2zM904 248.7H626.3l-4.9-13.1c-32.7-91.5-96.4-114.3-143.7-116H118.4c-31 0-55.5 24.5-55.5 53.9v681.1c0 29.4 24.5 53.9 55.5 53.9H904c31 0 55.5-24.5 55.5-53.9v-552c0-29.4-24.5-53.9-55.5-53.9z m-785.6-50.6c0-42.5 14.7-35.9 76.8-35.9h222.1c94.7 0 119.2 21.2 137.2 52.3l13.1 32.7H118.4v-49.1z m788.8 597.7c0 62.1-21.2 63.7-73.5 63.7H191.9c-63.7 0-73.5-4.9-73.5-73.5V299.3h728.4c68.6 0 60.4 26.1 60.4 73.5v423z m-699-329.9h68.6v68.6h-68.6v-68.6z m0 181.3h68.6v68.6h-68.6v-68.6z m0 0" p-id="2233" fill="#6699CC"></path></svg>