<?xml version="1.0" standalone="no"?><!DOCTYPE svg PUBLIC "-//W3C//DTD SVG 1.1//EN" "http://www.w3.org/Graphics/SVG/1.1/DTD/svg11.dtd"><svg t="1587298993820" class="icon" viewBox="0 0 1024 1024" version="1.1" xmlns="http://www.w3.org/2000/svg" p-id="6628" width="32" height="32" xmlns:xlink="http://www.w3.org/1999/xlink"><defs><style type="text/css"></style></defs><path d="M512.015052 32.633132c-264.662531 0-479.24645 214.629075-479.24645 479.366868s214.568867 479.38192 479.24645 479.38192c264.647479 0 479.231398-214.644128 479.231398-479.38192S776.662531 32.633132 512.015052 32.633132zM512.015052 931.474232c-231.231633 0-419.338762-188.197442-419.338762-419.45918 0-231.27679 188.107129-419.444128 419.338762-419.444128S931.338762 280.72321 931.338762 512.015052C931.338762 743.27679 743.14132 931.474232 512.015052 931.474232zM721.90269 321.334c-19.357107-12.68899-45.322123-7.255152-58.011113 12.177216L461.635396 642.607791l-96.695223-89.530384c-16.993914-15.669322-43.545965-14.660826-59.290548 2.333088-15.759635 17.054123-14.675878 43.561017 2.333088 59.275496l133.633279 123.668734 1.565427 0.978392 3.130854 3.221167 5.764986 2.227723 6.8939 2.799706 6.999265 1.068705 10.054858-0.120417 4.079142-0.948288 11.755755-4.891959 1.836366-1.369749 7.194943-5.193003 3.371689-5.509099 0.165574-0.255887L734.034749 379.46553C746.693635 360.033162 741.259797 334.02299 721.90269 321.334z" p-id="6629" fill="#09bb07"></path></svg>