<?xml version="1.0" standalone="no"?><!DOCTYPE svg PUBLIC "-//W3C//DTD SVG 1.1//EN" "http://www.w3.org/Graphics/SVG/1.1/DTD/svg11.dtd"><svg t="1587133436736" class="icon" viewBox="0 0 1099 1024" version="1.1" xmlns="http://www.w3.org/2000/svg" p-id="4612" width="34.34375" height="32" xmlns:xlink="http://www.w3.org/1999/xlink"><defs><style type="text/css"></style></defs><path d="M805.56 253c-28.7 0-52 23.3-52 52 0 9.6 2.6 18.6 7.1 26.2L613.16 538.7c-3.3-0.7-6.7-1-10.1-1-10.4 0-20.2 3.1-28.3 8.4l-103.1-66.3c0-0.4 0-0.9 0-1.3 0-28.7-23.3-52-52-52-28.7 0-52 23.3-52 52 0 8.1 1.8 15.8 5.2 22.7L270.46 657c-2.7-0.4-5.5-0.7-8.3-0.7-28.7 0-52 23.3-52 52 0 28.7 23.3 52 52 52s52-23.3 52-52c0-10.3-3-19.8-8.1-27.9l100-151.9c4.4 1.2 9 1.8 13.8 1.8 12.6 0 24.2-4.5 33.2-12l98.8 63.5c-0.4 2.5-0.6 5.1-0.6 7.7 0 28.7 23.3 52 52 52s52-23.3 52-52c0-9.6-2.6-18.6-7.1-26.2l147.6-207.5c3.3 0.7 6.7 1 10.1 1 28.7 0 52-23.3 52-52S834.26 253 805.56 253z" p-id="4613" fill="#6699CC"></path></svg>