<?xml version="1.0" standalone="no"?><!DOCTYPE svg PUBLIC "-//W3C//DTD SVG 1.1//EN" "http://www.w3.org/Graphics/SVG/1.1/DTD/svg11.dtd"><svg t="1587044029253" class="icon" viewBox="0 0 1024 1024" version="1.1" xmlns="http://www.w3.org/2000/svg" p-id="8613" width="32" height="32" xmlns:xlink="http://www.w3.org/1999/xlink"><defs><style type="text/css"></style></defs><path d="M861.005 186.136c-26.138-26.445-63.923-40.422-109.21-40.422-111.898 0-261.709 81.229-391.014 212.045-187.802 189.978-262.298 412.262-169.626 506.010l21.222 21.478c15.821 15.974 36.864 24.806 59.238 24.806s43.418-8.832 59.264-24.832l84.813-85.837c32.64-32.998 32.666-86.784 0-119.859l-21.222-21.453c-22.605-22.912-12.211-82.33 84.813-180.48 82.611-83.584 130.458-96.077 151.629-96.077 11.187 0 19.917 3.354 26.752 10.24l21.197 21.478c31.616 32 86.886 32.026 118.502 0l84.813-85.811c15.846-16 24.576-37.274 24.576-59.955 0-22.656-8.73-43.93-24.55-59.93l-21.197-21.402zM848.512 293.374l-84.813 85.837c-13.67 13.798-37.453 13.85-51.149 0l-21.197-21.453c-15.744-15.949-36.659-24.371-60.416-24.371-50.662 0-113.050 37.069-185.318 110.182-149.171 150.886-109.005 224.128-84.813 248.602l21.222 21.478c14.106 14.259 14.106 37.453 0 51.712l-84.813 85.811c-13.722 13.85-37.504 13.824-51.2 0.026l-21.197-21.504c-71.322-72.166 6.349-272.691 169.626-437.888 118.886-120.243 259.149-197.914 357.325-197.914 32.819 0 58.24 8.858 75.52 26.317l21.171 21.453c6.861 6.938 10.624 16.128 10.624 25.882s-3.738 18.893-10.573 25.83z" p-id="8614" fill="#6699CC"></path></svg>