<?xml version="1.0" standalone="no"?><!DOCTYPE svg PUBLIC "-//W3C//DTD SVG 1.1//EN" "http://www.w3.org/Graphics/SVG/1.1/DTD/svg11.dtd"><svg t="1587043372665" class="icon" viewBox="0 0 1024 1024" version="1.1" xmlns="http://www.w3.org/2000/svg" p-id="2846" width="32" height="32" xmlns:xlink="http://www.w3.org/1999/xlink"><defs><style type="text/css"></style></defs><path d="M777.7 537.7c-42.4-26.2-95.2-43.4-160-52 70.4-37.8 118.2-112 118.2-197.5 0-123.7-100.3-224-224-224s-224 100.3-224 224c0 85.5 47.9 159.7 118.2 197.5-64.7 8.6-117.6 25.8-160 52C167.8 586.2 128 664.3 128 769.9c0 56.3 11.7 96.3 35.9 122.2 29.5 31.7 70 35.3 97.9 35.3 31 0 66.4-5.5 103.8-11.3 44.4-6.9 94.7-14.7 146.4-14.7s102 7.8 146.4 14.7c37.5 5.8 72.9 11.3 103.8 11.3 27.9 0 68.3-3.7 97.9-35.3 24.2-25.9 35.9-65.8 35.9-122.2 0-105.6-39.8-183.7-118.3-232.2zM352 288.2c0-42.7 16.6-82.9 46.9-113.1 30.2-30.2 70.4-46.9 113.1-46.9s82.9 16.6 113.1 46.9c30.2 30.2 46.9 70.4 46.9 113.1s-16.6 82.9-46.9 113.1c-30.2 30.2-70.4 46.9-113.1 46.9s-82.9-16.6-113.1-46.9C368.6 371.1 352 331 352 288.2z m461.3 560.1c-6.5 7-18.2 15-51.1 15-26 0-57.6-4.9-94-10.5-46.7-7.2-99.6-15.4-156.2-15.4-56.6 0-109.5 8.2-156.2 15.4-36.5 5.6-68 10.5-94 10.5-32.9 0-44.6-8-51.1-15-12.4-13.3-18.7-39.7-18.7-78.5 0-97.2 33.2-226.5 320-226.5s320 129.3 320 226.5c0 38.8-6.3 65.3-18.7 78.5z" p-id="2847" fill="#6699CC"></path></svg>