<?xml version="1.0" standalone="no"?><!DOCTYPE svg PUBLIC "-//W3C//DTD SVG 1.1//EN" "http://www.w3.org/Graphics/SVG/1.1/DTD/svg11.dtd"><svg t="1587298106045" class="icon" viewBox="0 0 1024 1024" version="1.1" xmlns="http://www.w3.org/2000/svg" p-id="3061" width="32" height="32" xmlns:xlink="http://www.w3.org/1999/xlink"><defs><style type="text/css"></style></defs><path d="M512.000012 2.310963c-282.180781 0-510.844518 228.663737-510.844518 510.844518 0 282.180781 228.663737 510.844518 510.844518 510.844518 282.180781 0 510.844518-228.663737 510.844518-510.844518C1022.84453 231.09633 794.059164 2.310963 512.000012 2.310963L512.000012 2.310963zM512.000012 963.914953c-248.975888 0-450.759472-201.783585-450.759472-450.759472 0-248.975888 201.783585-450.759472 450.759472-450.759472 248.975888 0 450.759472 201.783585 450.759472 450.759472C962.637855 762.131369 760.85427 963.914953 512.000012 963.914953L512.000012 963.914953zM512.000012 257.733222c-23.474522 0-42.570376 19.095855-42.570376 42.570376l0 276.707447c0 23.474522 19.095855 42.570376 42.570376 42.570376 23.474522 0 42.570376-19.095855 42.570376-42.570376L554.570389 300.303599C554.448759 276.829077 535.474534 257.733222 512.000012 257.733222L512.000012 257.733222zM512.000012 683.436987c-23.474522 0-42.570376 19.095855-42.570376 42.570376 0 23.474522 19.095855 42.570376 42.570376 42.570376 23.474522 0 42.570376-19.095855 42.570376-42.570376C554.448759 702.532842 535.474534 683.436987 512.000012 683.436987L512.000012 683.436987zM512.000012 683.436987" p-id="3062" fill="#d81e06"></path></svg>